<svg xmlns="http://www.w3.org/2000/svg" viewBox="0 0 400 500" width="400" height="500"><defs><filter id="g"><feTurbulence type="fractalNoise" baseFrequency="0.85" numOctaves="2" stitchTiles="stitch"/><feColorMatrix values="0 0 0 0 0.1 0 0 0 0 0.08 0 0 0 0 0.05 0 0 0 0.22 0"/></filter><pattern id="s" width="50" height="10" patternUnits="userSpaceOnUse"><rect width="50" height="10" fill="#cdd8b8"/><rect width="25" height="10" fill="#8fa37a"/></pattern></defs><rect width="400" height="500" fill="url(#s)"/><path d="M130 240 v-60 a70 70 0 0 1 140 0 v60" stroke="#2b2b2b" stroke-width="30" fill="none"/><rect x="95" y="230" width="210" height="190" rx="34" fill="#f2b632" stroke="#1b1b1b" stroke-width="6"/><path d="M132 284 h60 q6 0 6 8 q-2 34 -36 34 q-32 0 -30 -42Z M208 284 h60 q2 42 -30 42 q-34 0 -36 -34 q0 -8 6 -8Z" fill="#1b1b1b"/><path d="M196 292 h8" stroke="#1b1b1b" stroke-width="6"/><path d="M148 296 l14 -6" stroke="#fdf6ea" stroke-width="4" stroke-linecap="round"/><path d="M175 360 Q200 378 225 360" stroke="#1b1b1b" stroke-width="5" fill="none" stroke-linecap="round"/><circle cx="200" cy="394" r="9" fill="#1b1b1b"/><rect x="196" y="397" width="8" height="14" fill="#1b1b1b"/><g transform="translate(290 110) rotate(25)"><rect width="74" height="34" rx="6" fill="#f08aa5" stroke="#1b1b1b" stroke-width="4"/><rect width="26" height="34" rx="6" fill="#2f6b6b" stroke="#1b1b1b" stroke-width="4"/></g><g fill="#fdf6ea"><circle cx="292" cy="186" r="4"/><circle cx="312" cy="200" r="3"/><circle cx="282" cy="206" r="3"/></g><path d="M60 410 l8 18 l20 3 l-15 13 l4 19 l-17 -10 l-17 10 l4 -19 l-15 -13 l20 -3Z" fill="#d81e2c"/><rect width="400" height="500" filter="url(#g)"/></svg>