<svg xmlns="http://www.w3.org/2000/svg" viewBox="0 0 400 500" width="400" height="500"><defs><filter id="g"><feTurbulence type="fractalNoise" baseFrequency="0.85" numOctaves="2" stitchTiles="stitch"/><feColorMatrix values="0 0 0 0 0.1 0 0 0 0 0.08 0 0 0 0 0.05 0 0 0 0.22 0"/></filter><pattern id="s" width="10" height="44" patternUnits="userSpaceOnUse"><rect width="10" height="44" fill="#d81e2c"/><rect width="10" height="22" fill="#c4161f"/></pattern></defs><rect width="400" height="500" fill="url(#s)"/><path d="M120 0 L60 330 H340 L280 0Z" fill="#fdf6ea" opacity=".18"/><rect x="110" y="330" width="180" height="170" fill="#fdf6ea" stroke="#1b1b1b" stroke-width="6"/><rect x="95" y="315" width="210" height="26" fill="#ebdcc2" stroke="#1b1b1b" stroke-width="6"/><path d="M170 170 h50 v95 q0 18 18 28 l20 12 q16 10 6 28 q-8 14 -26 6 l-48 -26 q-20 -12 -20 -36Z" fill="#f2b632" stroke="#1b1b1b" stroke-width="6" stroke-linejoin="round"/><path d="M170 190 h50 M170 210 h50" stroke="#d81e2c" stroke-width="8"/><circle cx="186" cy="245" r="5" fill="#1b1b1b"/><circle cx="206" cy="245" r="5" fill="#1b1b1b"/><path d="M188 262 Q196 268 204 262" stroke="#1b1b1b" stroke-width="4" fill="none" stroke-linecap="round"/><rect x="140" y="380" width="120" height="58" rx="4" fill="#fdf6ea" stroke="#1b1b1b" stroke-width="4"/><text x="200" y="404" text-anchor="middle" font-family="Georgia, serif" font-weight="700" font-size="15" fill="#1b1b1b">EXHIBIT 01</text><text x="200" y="424" text-anchor="middle" font-family="Georgia, serif" font-style="italic" font-size="12" fill="#4b4339">one (1) sock, c. 2026</text><path d="M70 90 l8 18 l20 3 l-15 13 l4 19 l-17 -10 l-17 10 l4 -19 l-15 -13 l20 -3Z" fill="#f2b632"/><path d="M320 140 l8 18 l20 3 l-15 13 l4 19 l-17 -10 l-17 10 l4 -19 l-15 -13 l20 -3Z" fill="#fdf6ea"/><rect width="400" height="500" filter="url(#g)"/></svg>